# xmcd CD database file
#
# Track frame offsets:
#	150
#	9400
#	23695
#
# Disc length: 1797 seconds
#
# Revision: 2
# Processed by: cddbd v1.5.2PL0 Copyright (c) Steve Scherf et al.
# Submitted via: CDex 1.70beta3
#
DISCID=13070303
DTITLE=ムック - 葬ラ謳 ボーナスディスク
DYEAR=2004
DGENRE=Rock
TTITLE0=世界の終わり
TTITLE1=夢の町
TTITLE2=制作終了コメント（茨城弁）
EXTD=YEAR: 2004
EXTT0=
EXTT1=
EXTT2=
PLAYORDER=
